<svg version="1.1" id="playVideoCirculo" xmlns="http://www.w3.org/2000/svg" xmlns:xlink="http://www.w3.org/1999/xlink" x="0px"
	 y="0px" viewBox="0 0 96 96" xml:space="preserve">
<rect fill="none" width="96" height="96"/>
<circle opacity="0.45" fill="#1B1819" cx="48" cy="48" r="41"/>
<path fill="#FFFFFF" d="M40.514,33.376l22.942,13.766c0.647,0.388,0.647,1.326,0,1.715L40.514,62.623
	c-0.666,0.4-1.514-0.08-1.514-0.857V34.234C39,33.456,39.848,32.976,40.514,33.376z"/>
<path fill="#FFFFFF" d="M89,48c0,22.644-18.356,41-41,41C25.356,89,7,70.644,7,48S25.356,7,48,7C70.644,7,89,25.356,89,48z M86,48
	c0-20.953-17.047-38-38-38c-20.953,0-38,17.047-38,38s17.047,38,38,38C68.953,86,86,68.953,86,48z"/>
</svg>