<?xml version="1.0" encoding="utf-8"?>
<svg width="32" height="32" viewBox="0 0 32 32" fill="none" xmlns="http://www.w3.org/2000/svg">
    <path fill-rule="evenodd" clip-rule="evenodd" d="M25.3334 6.50002C22.8334 4.00002 19.5 2.66669 16 2.66669C8.66669 2.66669 2.66669 8.66669 2.66669 16C2.66669 18.3334 3.33336 20.6667 4.50003 22.6667L2.66669 29.3334L9.66671 27.5C11.6667 28.5 13.8334 29.1667 16 29.1667C23.3334 29.1667 29.3334 23.1667 29.3334 15.8334C29.3334 12.3334 27.8334 9.00002 25.3334 6.50002ZM16 27C14 27 12 26.5 10.3334 25.5L10 25.3334L5.83334 26.5L7.00003 22.5L6.66668 22C5.50001 20.1667 5.00001 18.1667 5.00001 16.1667C5.00001 10.1667 10 5.16669 16 5.16669C19 5.16669 21.6667 6.33335 23.8334 8.33335C26 10.5 27 13.1667 27 16.1667C27 22 22.1667 27 16 27ZM22 18.6667C21.6667 18.5 20 17.6667 19.6667 17.6667C19.3334 17.5 19.1667 17.5 19 17.8334C18.8333 18.1667 18.1667 18.8334 18 19.1667C17.8334 19.3334 17.6667 19.3334 17.3333 19.3334C17 19.1667 16 18.8334 14.6667 17.6667C13.6667 16.8334 13 15.6667 12.8334 15.3334C12.6667 15 12.8334 14.8334 13 14.6667C13.1667 14.5 13.3334 14.3334 13.5 14.1667C13.6667 14 13.6667 13.8334 13.8334 13.6667C14 13.5 13.8334 13.3334 13.8334 13.1667C13.8334 13 13.1667 11.3334 12.8334 10.6667C12.6667 10.1667 12.3334 10.1667 12.1667 10.1667C12 10.1667 11.8333 10.1667 11.5 10.1667C11.3333 10.1667 11 10.1667 10.6667 10.5C10.3333 10.8334 9.50003 11.6667 9.50003 13.3334C9.50003 15 10.6667 16.5 10.8333 16.8334C11 17 13.1667 20.5 16.5 21.8334C19.3333 23 19.8334 22.6667 20.5 22.6667C21.1667 22.6667 22.5 21.8334 22.6667 21.1667C23 20.3334 23 19.6667 22.8334 19.6667C22.6667 18.8334 22.3334 18.8334 22 18.6667Z" fill="#888"></path>
</svg>