<?xml version="1.0" encoding="utf-8"?>
<svg width="32" height="32" viewBox="0 0 32 32" fill="none" xmlns="http://www.w3.org/2000/svg">
    <g clip-path="url(#clip0_3055_1716)">
        <path d="M5.16666 6C3.78645 6 2.66666 7.11979 2.66666 8.5C2.66666 9.28646 3.03645 10.026 3.66666 10.5L15 19C15.5937 19.4427 16.4062 19.4427 17 19L28.3333 10.5C28.9635 10.026 29.3333 9.28646 29.3333 8.5C29.3333 7.11979 28.2135 6 26.8333 6H5.16666ZM2.66666 11.8333V22.6667C2.66666 24.5052 4.16145 26 5.99999 26H26C27.8385 26 29.3333 24.5052 29.3333 22.6667V11.8333L18 20.3333C16.8125 21.224 15.1875 21.224 14 20.3333L2.66666 11.8333Z" fill="#888"></path>
    </g>
    <defs>
        <clipPath id="clip0_3055_1716">
        <rect width="26.6667" height="26.6667" fill="white" transform="translate(2.66666 2.66669)"></rect>
        </clipPath>
    </defs>
</svg>