<svg version="1.1" id="playAudioCirculo" xmlns="http://www.w3.org/2000/svg" xmlns:xlink="http://www.w3.org/1999/xlink" x="0px"
	 y="0px" viewBox="0 0 96 96" xml:space="preserve">
<rect fill="none" width="96" height="96"/>
<circle opacity="0.45" fill="#1B1819" cx="48" cy="48" r="41"/>
<g id="audio_2_">
	<path fill="#FFFFFF" d="M89,48c0,22.644-18.356,41-41,41C25.356,89,7,70.644,7,48S25.356,7,48,7C70.644,7,89,25.356,89,48z M86,48
		c0-20.953-17.047-38-38-38c-20.953,0-38,17.047-38,38s17.047,38,38,38C68.953,86,86,68.953,86,48z"/>
	<path fill="#FFFFFF" d="M54.653,38.021l1.112-1.668C59.523,38.863,62,43.141,62,48c0,4.859-2.477,9.137-6.235,11.647l-1.112-1.668
		C57.873,55.825,60,52.157,60,48C60,43.843,57.873,40.175,54.653,38.021z M54,48c0,2.079-1.064,3.911-2.674,4.988l1.11,1.666
		C54.583,53.219,56,50.776,56,48c0-2.776-1.417-5.219-3.564-6.654l-1.11,1.666C52.936,44.089,54,45.921,54,48z M59.092,31.361
		l-1.113,1.67C62.81,36.263,66,41.764,66,48c0,6.236-3.19,11.737-8.021,14.969l1.113,1.67C64.461,61.052,68,54.941,68,48
		C68,41.059,64.461,34.947,59.092,31.361z"/>
	<path fill="#FFFFFF" d="M45.217,32.944l-10.303,8.195H28v13.638h6.915l10.303,8.195C46.461,63.91,48,62.967,48,61.631V34.286
		C48,32.95,46.461,32.006,45.217,32.944z"/>
	<rect x="28" y="28" fill="none" width="40" height="40"/>
</g>
</svg>
