<?xml version="1.0" encoding="utf-8"?>
<svg width="32" height="32" viewBox="0 0 32 32" fill="none" xmlns="http://www.w3.org/2000/svg">
    <path d="M28 16.5C28 23.4036 22.6274 29 16 29C9.37258 29 4 23.4036 4 16.5C4 9.59644 9.37258 4 16 4C22.6274 4 28 9.59644 28 16.5Z" fill="#888"></path>
    <path d="M29.3334 16.0812C29.3334 8.67074 23.3656 2.66669 16 2.66669C8.63443 2.66669 2.66669 8.67074 2.66669 16.0812C2.66669 22.7765 7.54249 28.3262 13.9167 29.3334V19.9589H10.5296V16.0812H13.9167V13.1256C13.9167 9.76391 15.9059 7.90698 18.9527 7.90698C20.4118 7.90698 21.9377 8.16878 21.9377 8.16878V11.4683H20.2559C18.6 11.4683 18.0834 12.5025 18.0834 13.5632V16.0812H21.7812L21.1898 19.9589H18.0834V29.3334C24.4575 28.3262 29.3334 22.7765 29.3334 16.0812Z" fill="#fff"></path>
</svg>