<svg fill="#fff" width="400" height="65" xmlns="http://www.w3.org/2000/svg"><path d="M15.668 2.172C15.978.776 16.444 0 17.064 0c.621 0 1.086.465 2.172 2.482l22.494 46.54L64.224 2.016C64.844.62 65.31 0 66.086 0s1.241.776 1.551 2.482l7.447 51.038c.775 5.12 1.55 7.602 4.033 8.377 2.327.776 4.033.776 5.12.776.775 0 1.24.155 1.24.62 0 .621-.93.931-2.172.931-2.016 0-13.496-.31-16.754-.465-1.861-.155-2.327-.465-2.327-.93 0-.466.31-.621.931-.932.466-.155.776-1.24.466-3.568l-4.965-36.3h-.31L42.351 59.415c-1.862 3.879-2.327 4.654-3.103 4.654-.775 0-1.551-1.706-2.947-4.188-2.017-3.723-8.533-16.444-9.463-18.771-.776-1.707-5.74-12.1-8.533-18.306h-.31l-4.343 32.888c-.156 1.551-.31 2.482-.31 3.878 0 1.552 1.085 2.327 2.481 2.638 1.552.31 2.638.465 3.413.465.62 0 1.241.155 1.241.62 0 .776-.775.931-2.016.931-3.413 0-7.136-.31-8.688-.31-1.551 0-5.584.31-8.222.31-.775 0-1.551-.155-1.551-.93 0-.466.465-.621 1.241-.621.62 0 1.241 0 2.482-.31 2.793-.466 3.413-3.568 3.723-6.516zm78.186 23.58c0-12.566 0-14.893-.155-17.53-.155-2.792-.93-4.189-2.792-4.654-.93-.31-2.017-.31-2.948-.31-.93 0-1.396-.155-1.396-.776 0-.465.62-.62 2.017-.62 3.103 0 8.377.31 10.704.31 2.017 0 6.98-.31 10.084-.31 1.085 0 1.706.155 1.706.62 0 .62-.465.776-1.241.776s-1.551.155-2.482.31c-2.172.465-2.948 1.862-3.103 4.654-.155 2.637-.155 4.964-.155 17.53v14.582c0 8.067 0 14.582.31 17.995.31 2.172.776 3.724 3.258 4.034 1.086.155 2.948.31 4.189.31.93 0 1.396.31 1.396.62 0 .621-.62.776-1.551.776-5.43 0-10.705-.31-12.876-.31-1.862 0-7.136.31-10.394.31-1.086 0-1.707-.31-1.707-.775 0-.466.31-.621 1.397-.621 1.24 0 2.171-.155 2.947-.31 1.706-.31 2.172-1.707 2.327-4.189.465-3.413.465-9.928.465-17.995zm37.852 14.427c0 10.549 0 16.289 1.707 17.685 1.396 1.241 3.568 1.862 9.928 1.862 4.344 0 7.602-.156 9.618-2.327.931-1.086 2.017-3.413 2.172-4.965.155-.775.31-1.24.931-1.24.62 0 .62.465.62 1.395 0 .931-.62 7.137-1.24 9.464-.466 1.861-.931 2.171-5.12 2.171-5.895 0-10.238-.155-13.962-.31-3.723-.155-6.67-.31-10.083-.31h-4.654c-1.862 0-4.033.155-5.74.155-1.086 0-1.706-.31-1.706-.776 0-.465.31-.62 1.24-.62 1.242 0 2.173-.155 2.948-.31 1.707-.31 2.017-2.172 2.327-4.5.466-3.412.466-9.928.466-17.53v-14.58c0-12.566 0-14.893-.156-17.53-.155-2.793-.775-4.189-3.568-4.654-.62-.155-1.706-.31-2.792-.31-.93 0-1.396-.156-1.396-.776s.62-.776 1.861-.776c3.879 0 8.998.31 11.325.31 2.017 0 8.067-.31 11.17-.31 1.085 0 1.706.155 1.706.776 0 .62-.466.775-1.551.775-.931 0-2.172.156-3.258.31-2.172.466-2.948 1.862-3.103 4.655-.155 2.637-.155 4.964-.155 17.53V40.18z" style="stroke-width:1.55131"/><path d="M163.508 25.752c0-12.566 0-14.893-.155-17.53-.155-2.792-.775-4.189-3.568-4.654-.62-.155-2.016-.31-3.258-.31-.93 0-1.396-.155-1.396-.776 0-.62.62-.776 1.862-.776 2.172 0 4.654.156 6.67.156 2.172.155 4.034.155 5.12.155 2.637 0 19.081 0 20.632-.155 1.552-.156 2.948-.31 3.568-.466.466-.155.931-.31 1.241-.31.466 0 .466.31.466.776 0 .62-.466 1.55-.62 5.43-.156.775-.311 4.498-.466 5.429-.155.465-.31.93-.776.93-.62 0-.775-.465-.775-1.085 0-.62 0-2.017-.466-2.948-.62-1.551-1.396-2.482-5.585-2.947-1.396-.155-10.083-.31-11.79-.31-.465 0-.62.31-.62.775v20.788c0 .62 0 .93.62.93 1.862 0 11.325 0 13.187-.155 2.016-.155 3.257-.465 3.878-1.24.62-.621.93-1.087 1.396-1.087.31 0 .62.155.62.62 0 .466-.31 1.862-.62 6.051-.155 1.706-.31 4.964-.31 5.585 0 .62 0 1.551-.776 1.551-.62 0-.776-.31-.776-.776-.155-.775-.155-1.861-.31-2.947-.465-1.707-1.551-2.948-4.654-3.258-1.551-.155-9.773-.31-11.79-.31-.465 0-.465.31-.465.775v6.516c0 2.792-.155 10.394 0 12.72.155 5.74 1.551 6.982 9.928 6.982 2.172 0 5.585 0 7.757-.931 2.172-.93 3.102-2.792 3.723-6.05.155-.931.31-1.241.93-1.241.621 0 .621.62.621 1.551 0 1.862-.62 7.446-1.086 9.153-.62 2.172-1.24 2.172-4.498 2.172a315.44 315.44 0 0 1-14.272-.31c-3.569-.156-6.05-.31-8.533-.31h-4.654c-1.861 0-4.033.154-5.74.154-1.085 0-1.706-.31-1.706-.775 0-.466.31-.621 1.241-.621 1.241 0 2.172-.155 2.948-.31 1.706-.31 2.016-2.172 2.327-4.499.465-3.413.465-9.928.465-17.53V25.752ZM210.979 52.9c.155 6.36 1.24 8.532 2.947 9.153 1.396.465 2.948.62 4.344.62.93 0 1.396.155 1.396.62 0 .621-.776.776-1.862.776-5.43 0-8.687-.31-10.238-.31-.776 0-4.654.31-8.843.31-1.086 0-1.861-.155-1.861-.775 0-.466.465-.621 1.24-.621a16.29 16.29 0 0 0 3.724-.465c2.172-.62 2.482-3.103 2.482-10.239l.776-48.866c0-1.707.31-2.793 1.085-2.793.931 0 1.707 1.086 3.103 2.482.93 1.086 13.496 14.583 25.597 26.528 5.584 5.585 16.754 17.53 18.15 18.77h.465l-.775-37.076c-.155-4.964-.776-6.67-2.793-7.446-1.24-.465-3.257-.465-4.343-.465-.931 0-1.241-.31-1.241-.776 0-.62.93-.776 2.172-.776 4.343 0 8.222.31 9.928.31.93 0 4.033-.31 8.067-.31 1.086 0 1.861.155 1.861.776 0 .465-.465.776-1.55.776-.777 0-1.552 0-2.483.31-2.327.62-2.948 2.327-3.103 6.98l-.93 51.97c0 1.861-.31 2.482-1.086 2.482-.931 0-1.862-.93-2.793-1.862-5.12-4.964-15.823-15.823-24.355-24.2-8.998-8.843-18.15-19.236-19.702-20.788h-.31zm63.448-27.148c0-12.566 0-14.893-.155-17.53-.155-2.792-.93-4.189-2.792-4.654-.931-.31-2.017-.31-2.948-.31-.775 0-1.24-.155-1.24-.776 0-.465.62-.62 2.016-.62 3.103 0 8.377.31 10.704.31 2.017 0 6.98-.31 10.083-.31 1.086 0 1.707.155 1.707.62 0 .62-.465.776-1.241.776s-1.551.155-2.482.31c-2.172.465-2.948 1.862-3.103 4.654-.155 2.637-.155 4.964-.155 17.53v14.582c0 8.067 0 14.582.31 17.995.31 2.172.776 3.724 3.258 4.034 1.086.155 2.948.31 4.189.31.93 0 1.24.31 1.24.62 0 .621-.62.776-1.55.776-5.43 0-10.705-.31-12.877-.31-1.861 0-7.136.31-10.393.31-1.086 0-1.707-.31-1.707-.775 0-.466.31-.621 1.241-.621 1.241 0 2.172-.155 2.948-.31 1.706-.31 2.172-1.707 2.327-4.189.465-3.413.465-9.928.465-17.995V25.752Zm75.083 8.532c0-18.46-10.703-29.94-24.2-29.94-9.463 0-20.322 5.274-20.322 25.751 0 17.22 9.463 30.716 25.286 30.716 5.895.156 19.237-2.637 19.237-26.527m-55.848-1.551c0-14.117 9.308-32.268 34.13-32.268 20.477 0 33.353 11.946 33.353 30.716 0 18.926-13.187 33.819-34.13 33.819-23.734 0-33.353-17.685-33.353-32.267m87.184-23.425h2.017c1.396 0 2.327-.155 2.327-1.551 0-1.241-1.241-1.397-2.327-1.397h-1.862v2.948zm-2.327-4.81h4.344c2.947 0 4.499.932 4.499 3.414 0 2.172-1.396 2.947-3.103 3.102l3.103 4.965h-2.327l-2.793-4.965h-1.396v4.965h-2.327zm4.189 13.807c4.188 0 7.756-3.412 7.756-8.066 0-4.654-3.568-8.067-7.756-8.067-4.344 0-7.757 3.413-7.757 8.067s3.413 8.066 7.757 8.066m0-18.305c5.585 0 10.549 4.033 10.549 10.239 0 6.205-4.964 10.238-10.55 10.238-5.584 0-10.548-4.033-10.548-10.238C372.16 4.033 377.124 0 382.709 0" style="stroke-width:1.55131"/></svg>