<svg width="287" height="60" viewBox="0 0 287 60" fill="none" xmlns="http://www.w3.org/2000/svg">
<path d="M250.815 4.81859L281.09 29.9237L250.815 55.0287L234.968 43.7544L250.804 31.8477V27.9996L235.011 16.0497L250.815 4.81859ZM246.566 30.1669L228.724 43.5815C228.557 43.7112 228.557 43.9652 228.73 44.0841L250.799 59.7849C250.912 59.866 251.068 59.8606 251.176 59.7687L286.887 30.1561C287.038 30.0318 287.038 29.7994 286.887 29.675L251.182 0.0732175C251.074 -0.0186633 250.917 -0.024068 250.804 0.0570032L228.789 15.7038C228.616 15.8281 228.611 16.0821 228.784 16.2064L246.571 29.6696C246.739 29.7939 246.739 30.0426 246.571 30.1669H246.566Z" fill="#FF104F"/>
<path d="M34.5782 36.993C33.6239 36.993 32.896 36.7227 32.3891 36.1769C31.8877 35.631 31.6342 34.8419 31.6342 33.8042V23.6811H37.3227V19.6978H31.6342V14.8335H26.6629V19.6978H23.1636V23.6811H26.6629V33.9231C26.6629 36.2633 27.2992 38.0415 28.5716 39.263C29.8441 40.4844 31.645 41.0952 33.9797 41.0952C34.9071 41.0952 35.7914 40.9763 36.6218 40.7385C37.4575 40.5007 38.1638 40.1385 38.7462 39.6629L37.355 36.1174C36.611 36.7011 35.6836 36.993 34.5728 36.993H34.5782Z" fill="white"/>
<path d="M47.1845 22.6434V19.5357H42.4558V40.8196H47.4271V30.4965C47.4271 28.3724 47.9717 26.7456 49.0555 25.616C50.1447 24.4864 51.6544 23.9243 53.5901 23.9243C53.9352 23.9243 54.318 23.9622 54.7439 24.0432V19.2979C51.1368 19.2979 48.6188 20.4166 47.1899 22.6434H47.1845Z" fill="white"/>
<path d="M73.1303 20.6707C71.5019 19.7519 69.6525 19.2979 67.582 19.2979C65.5116 19.2979 63.6082 19.7627 61.9367 20.6923C60.2652 21.6219 58.9604 22.919 58.0222 24.5783C57.0786 26.2376 56.6095 28.1076 56.6095 30.1776C56.6095 32.2476 57.0948 34.1555 58.0599 35.8148C59.0251 37.474 60.4 38.7712 62.174 39.7008C63.9479 40.6304 66.0022 41.0952 68.3369 41.0952C70.1648 41.0952 71.8093 40.8034 73.2651 40.2196C74.7209 39.6359 75.9287 38.7712 76.8831 37.6308L74.2195 34.5609C72.7097 36.1012 70.7848 36.8741 68.4555 36.8741C66.6277 36.8741 65.0964 36.4147 63.8616 35.5013C62.6269 34.5825 61.8666 33.3448 61.5755 31.7774H78.2364C78.2903 31.1397 78.3173 30.6478 78.3173 30.3019C78.3173 28.1238 77.859 26.2051 76.9478 24.5405C76.0311 22.8812 74.7587 21.5895 73.1303 20.6761V20.6707ZM61.5377 28.4643C61.775 26.8969 62.4436 25.643 63.5435 24.6972C64.6435 23.7568 65.9914 23.2812 67.5766 23.2812C69.1619 23.2812 70.5476 23.7622 71.6314 24.7188C72.7151 25.6755 73.3675 26.924 73.5778 28.4643H61.5323H61.5377Z" fill="white"/>
<path d="M94.8974 29.2588C93.8082 28.9129 92.4171 28.6103 90.7241 28.34C89.0256 28.0482 87.7747 27.7347 86.9659 27.405C86.1571 27.0753 85.7527 26.5078 85.7527 25.7133C85.7527 24.9945 86.1302 24.4162 86.885 23.9784C87.6399 23.5406 88.7452 23.319 90.2064 23.319C92.4603 23.319 94.4876 23.8487 96.2885 24.9134L98.1972 21.1247C97.2698 20.568 96.0782 20.1194 94.617 19.7897C93.1558 19.46 91.7 19.2925 90.2442 19.2925C87.3811 19.2925 85.1057 19.8978 83.4234 21.1085C81.7412 22.3191 80.9 23.9298 80.9 25.9511C80.9 27.4915 81.3044 28.6967 82.1132 29.5561C82.922 30.4209 83.8764 31.0262 84.9763 31.3721C86.0763 31.718 87.4997 32.0261 89.2521 32.2909C90.9236 32.5557 92.1368 32.8368 92.8916 33.1286C93.6465 33.4205 94.0239 33.9394 94.0239 34.6852C94.0239 36.2526 92.5411 37.0363 89.5702 37.0363C88.2708 37.0363 86.9497 36.8417 85.6126 36.458C84.2754 36.0742 83.1269 35.5608 82.1725 34.923L80.2638 38.7118C81.2451 39.4036 82.5553 39.9765 84.1999 40.4251C85.8444 40.8791 87.5267 41.1007 89.2521 41.1007C92.223 41.1007 94.5685 40.5007 96.2885 39.3063C98.0139 38.1118 98.8712 36.5174 98.8712 34.5231C98.8712 33.0097 98.483 31.8369 97.7012 31.0154C96.9194 30.1939 95.9866 29.6047 94.8974 29.2642V29.2588Z" fill="white"/>
<path d="M120.088 20.6491C118.46 19.7465 116.611 19.2925 114.54 19.2925C113.079 19.2925 111.752 19.5465 110.545 20.0491C109.337 20.5518 108.323 21.3139 107.504 22.3191V19.5303H102.775V46.9162H107.746V38.2253C109.418 40.1386 111.682 41.0952 114.545 41.0952C116.611 41.0952 118.46 40.6412 120.094 39.7387C121.722 38.8361 123.005 37.5551 123.933 35.8905C124.86 34.2312 125.324 32.3233 125.324 30.1722C125.324 28.0212 124.86 26.1187 123.933 24.4702C123.005 22.8218 121.727 21.5463 120.094 20.6437L120.088 20.6491ZM118.498 34.9987C117.317 36.2202 115.813 36.8309 113.985 36.8309C112.793 36.8309 111.72 36.5607 110.766 36.0148C109.811 35.4689 109.057 34.696 108.501 33.6853C107.946 32.6746 107.665 31.5072 107.665 30.1777C107.665 28.8481 107.946 27.6807 108.501 26.67C109.057 25.6593 109.811 24.881 110.766 24.3405C111.72 23.7946 112.793 23.5244 113.985 23.5244C115.813 23.5244 117.317 24.1351 118.498 25.3566C119.679 26.5781 120.266 28.1887 120.266 30.1777C120.266 32.1666 119.679 33.7772 118.498 34.9987Z" fill="white"/>
<path d="M134.62 12.769H129.648V40.8197H134.62V12.769Z" fill="white"/>
<path d="M148.854 19.2925C147.102 19.2925 145.446 19.5195 143.883 19.9681C142.319 20.4221 140.982 21.0707 139.866 21.9192L141.812 25.5458C142.605 24.881 143.581 24.3622 144.735 23.9892C145.889 23.6163 147.059 23.4326 148.256 23.4326C150.008 23.4326 151.324 23.8325 152.213 24.627C153.103 25.4215 153.545 26.5673 153.545 28.0536V28.3725H148.056C145.01 28.3725 142.772 28.9508 141.354 30.1074C139.936 31.264 139.224 32.799 139.224 34.7123C139.224 35.9337 139.548 37.0309 140.2 37.9984C140.847 38.9712 141.769 39.7279 142.966 40.2684C144.158 40.8142 145.549 41.0845 147.139 41.0845C148.73 41.0845 150.089 40.8413 151.216 40.3494C152.343 39.8576 153.211 39.1496 153.82 38.2199V40.8088H158.511V28.3347C158.511 25.308 157.681 23.038 156.025 21.5409C154.37 20.0384 151.976 19.2871 148.849 19.2871L148.854 19.2925ZM153.545 34.161C153.146 35.2257 152.467 36.0418 151.496 36.6093C150.531 37.1822 149.42 37.4687 148.175 37.4687C146.929 37.4687 145.91 37.2039 145.193 36.6742C144.476 36.1445 144.12 35.4257 144.12 34.5231C144.12 32.6368 145.549 31.691 148.412 31.691H153.54V34.161H153.545Z" fill="white"/>
<path d="M9.62993 19.2925C7.87756 19.2925 6.22225 19.5195 4.6586 19.9681C3.09495 20.4221 1.75776 21.0707 0.641636 21.9192L2.58811 25.5458C3.38072 24.881 4.35665 24.3622 5.51052 23.9892C6.66439 23.6163 7.83443 23.4326 9.03143 23.4326C10.7838 23.4326 12.0994 23.8325 12.9891 24.627C13.8787 25.4215 14.3209 26.5673 14.3209 28.0536V28.3725H8.83193C5.78551 28.3725 3.54787 28.9508 2.1298 30.1074C0.711731 31.264 0 32.799 0 34.7123C0 35.9337 0.323514 37.0309 0.975934 37.9984C1.62296 38.9712 2.54498 39.7279 3.74198 40.2684C4.93359 40.8142 6.3247 41.0845 7.91531 41.0845C9.50592 41.0845 10.8647 40.8413 11.9916 40.3494C13.1185 39.8576 13.9866 39.1496 14.5959 38.2199V40.8088H19.2868V28.3347C19.2868 25.308 18.4565 23.038 16.8012 21.5409C15.1458 20.0384 12.7518 19.2871 9.62454 19.2871L9.62993 19.2925ZM14.3209 34.161C13.9219 35.2257 13.2425 36.0418 12.272 36.6093C11.3068 37.1822 10.1961 37.4687 8.95055 37.4687C7.70502 37.4687 6.68596 37.2039 5.96883 36.6742C5.25171 36.1445 4.89584 35.4257 4.89584 34.5231C4.89584 32.6368 6.3247 31.691 9.1878 31.691H14.3155V34.161H14.3209Z" fill="white"/>
<path d="M200.843 20.6707C199.214 19.7519 197.365 19.2979 195.295 19.2979C193.224 19.2979 191.321 19.7627 189.649 20.6923C187.978 21.6219 186.673 22.919 185.735 24.5783C184.791 26.2376 184.322 28.1076 184.322 30.1776C184.322 32.2476 184.807 34.1555 185.772 35.8148C186.738 37.474 188.113 38.7712 189.886 39.7008C191.66 40.6304 193.715 41.0952 196.049 41.0952C197.877 41.0952 199.522 40.8034 200.978 40.2196C202.433 39.6359 203.641 38.7712 204.596 37.6308L201.932 34.5609C200.422 36.1012 198.497 36.8741 196.168 36.8741C194.34 36.8741 192.809 36.4147 191.574 35.5013C190.339 34.5825 189.579 33.3448 189.288 31.7774H205.949C206.003 31.1397 206.03 30.6478 206.03 30.3019C206.03 28.1238 205.572 26.2051 204.66 24.5405C203.744 22.8812 202.471 21.5895 200.843 20.6761V20.6707ZM189.25 28.4643C189.487 26.8969 190.156 25.643 191.256 24.6972C192.356 23.7568 193.704 23.2812 195.289 23.2812C196.874 23.2812 198.26 23.7622 199.344 24.7188C200.428 25.6755 201.08 26.924 201.29 28.4643H189.245H189.25Z" fill="white"/>
<path d="M215.137 22.6434V19.5357H210.408V40.8196H215.379V30.4965C215.379 28.3724 215.924 26.7456 217.008 25.616C218.097 24.4864 219.607 23.9243 221.542 23.9243C221.887 23.9243 222.27 23.9622 222.696 24.0432V19.2979C219.089 19.2979 216.571 20.4166 215.142 22.6434H215.137Z" fill="white"/>
<path d="M179.442 19.8167L172.422 36.2687L165.44 19.8167H160.037L167.78 37.6631H171.565L169.721 42.1437L167.747 46.7539L172.578 46.7647L184.43 19.8167H179.442Z" fill="white"/>
</svg>
