<svg version="1.2" xmlns="http://www.w3.org/2000/svg" viewBox="0 0 100 100" width="100" height="100">
	<title>LOGO_NEOX_PRINCIPAL_RGB_SF-ai</title>
	<style>
		.s0 { fill: #eed044 } 
	</style>
	<g id="Layer 1">
		<g id="&lt;Group&gt;">
			<g id="&lt;Group&gt;">
				<path id="&lt;Path&gt;" class="s0" d="m1 23.2v22.8h11.8v-22.8c0-6.5 5.3-11.9 11.9-11.9 6.5 0 11.8 5.4 11.8 11.9v22.8h11.9v-22.8c0-13.1-10.6-23.7-23.7-23.7-13.1 0-23.7 10.6-23.7 23.7z"/>
			</g>
			<g id="&lt;Group&gt;">
				<path id="&lt;Compound Path&gt;" fill-rule="evenodd" class="s0" d="m24.3 100c-13.1 0-23.7-10.6-23.7-23.7 0-13.1 10.6-23.7 23.7-23.7 13.1 0 23.7 10.6 23.7 23.7 0 13.1-10.6 23.7-23.7 23.7zm11.9-23.7c0-6.6-5.3-11.9-11.9-11.9-6.6 0-11.9 5.3-11.9 11.9 0 6.5 5.3 11.9 11.9 11.9 6.6 0 11.9-5.4 11.9-11.9z"/>
			</g>
			<g id="&lt;Group&gt;">
				<path id="&lt;Compound Path&gt;" fill-rule="evenodd" class="s0" d="m52.4 23.2c0-13.1 9.9-23.7 24.4-23.7 13.2 0 23.1 10.9 23.1 25.3 0 0 0 2-0.7 3.7h-33.8c1.5 2.6 5 7.8 11.2 7.8 5.8 0 8.2-0.9 13.3-4l6.1 9.2c-5.5 4.4-13.7 5.5-19.1 5.5-11.9 0-24.5-8.9-24.5-23.8zm23.6-11.9c-6.7 0-10.4 5.6-10.9 7.3h21.9c-0.5-1.7-3.8-7.3-11-7.3z"/>
			</g>
			<path id="&lt;Path&gt;" class="s0" d="m93 65.2h5.9v-11.8h-5.6c-6.8 0-13 3-17.2 7.8-4.2-4.8-10.3-7.8-17.2-7.8h-5.6v11.8h5.9c6.1 0 11 5 11 11 0 6.1-4.9 11-11 11h-5.9v11.9h5.6c6.9 0 13-3 17.2-7.8 4.2 4.8 10.4 7.8 17.2 7.8h5.6v-11.9h-5.9c-6 0-11-4.9-11-11 0-6 5-11 11-11z"/>
		</g>
	</g>
</svg>