<!-- Generated by IcoMoon.io -->
<svg version="1.1" xmlns="http://www.w3.org/2000/svg" width="133" height="32" viewBox="0 0 133 32">
<title>logo-flooxer</title>
<path fill="#69a543" d="M0.007 14.076h5.822v-3.856c0-2.876 1.040-5.296 3.122-7.264 2.084-1.963 4.555-2.952 7.415-2.952h0.834v5.49h-0.834c-1.33 0-2.491 0.47-3.492 1.427-0.995 0.944-1.496 2.044-1.496 3.309v3.864h5.822v5.552h-5.822v1.815c0 2.905-1.031 5.394-3.093 7.449-2.057 2.056-4.544 3.086-7.449 3.086h-0.831v-5.548h0.831c1.351 0 2.525-0.498 3.507-1.476 0.982-0.991 1.478-2.152 1.478-3.507v-1.818h-5.821v-5.554l0.007-0.015z"></path>
<path fill="#69a543" d="M25.629 26.917h-5.552v-26.917h5.552z"></path>
<path fill="#69a543" d="M33.995 17.206c0 1.354 0.499 2.524 1.496 3.507 0.994 0.991 2.162 1.479 3.491 1.479 1.353 0 2.523-0.506 3.507-1.479 0.988-0.986 1.478-2.152 1.478-3.507 0-1.33-0.495-2.491-1.478-3.502-0.989-0.991-2.154-1.496-3.507-1.496-1.329 0-2.491 0.508-3.491 1.496-0.997 1.005-1.496 2.173-1.496 3.502zM28.475 17.206c0-2.915 1.025-5.392 3.072-7.428 2.054-2.050 4.526-3.072 7.429-3.072s5.388 1.039 7.449 3.072c2.062 2.056 3.093 4.523 3.093 7.428 0 2.907-1.031 5.39-3.093 7.449-2.060 2.056-4.545 3.081-7.449 3.081s-5.38-1.032-7.429-3.081c-2.047-2.063-3.072-4.544-3.072-7.449zM56.76 17.206c0 1.354 0.498 2.524 1.493 3.507 0.997 0.991 2.162 1.479 3.495 1.479 1.353 0 2.522-0.506 3.507-1.479 0.99-0.986 1.479-2.152 1.479-3.507 0-1.33-0.497-2.491-1.479-3.502-0.988-0.991-2.152-1.496-3.507-1.496-1.33 0-2.491 0.508-3.495 1.496-0.995 1.005-1.493 2.173-1.493 3.502zM51.241 17.206c0-2.915 1.029-5.392 3.074-7.428 2.051-2.050 4.527-3.072 7.43-3.072s5.387 1.039 7.449 3.072c2.057 2.056 3.089 4.523 3.089 7.428 0 2.907-1.032 5.39-3.089 7.449-2.061 2.056-4.545 3.081-7.449 3.081s-5.383-1.032-7.43-3.081c-2.049-2.063-3.074-4.544-3.074-7.449z"></path>
<path fill="#69a543" d="M76.828 29.255l-4.307-3.866 7.321-7.476-6.219-6.016 4.019-4.298 6.087 5.929 10.703-10.414 4.307 3.866-10.614 10.37 11.001 10.159-4.207 4.489-10.957-10.159z"></path>
<path fill="#69a543" d="M108.268 12.177c-2.951 0-4.571 2.491-4.804 3.221h9.693c-0.214-0.719-1.676-3.221-4.889-3.221zM97.844 17.448c0-5.829 4.397-10.522 10.805-10.522 5.832 0 10.204 4.852 10.204 11.199 0 0 0 0.925-0.293 1.637h-14.957c0.633 1.185 2.181 3.459 4.97 3.459 2.563 0 3.627-0.39 5.887-1.766l2.676 4.053c-2.411 1.962-6.070 2.485-8.443 2.485-5.288 0.013-10.85-3.933-10.85-10.544zM126.948 28.078v-10.008c0-1.263 0.503-2.366 1.497-3.313 0.998-0.944 2.162-1.414 3.496-1.414h0.83v-5.488h-0.83c-2.863 0-5.335 0.991-7.419 2.954s-3.123 4.383-3.123 7.262v10.001l5.549 0.007z"></path>
</svg>
