<svg id="Capa_1" data-name="Capa 1" xmlns="http://www.w3.org/2000/svg" xmlns:xlink="http://www.w3.org/1999/xlink" width="45" height="32" viewBox="0 0 809.91 602.46"><polygon points="94.01 601.32 93.86 530.26 63.48 601.32 50.32 601.32 20.47 531.24 20.47 601.32 0 601.32 0 486.71 20.47 486.7 57.51 575.78 93.96 486.7 114.28 486.71 114.43 601.32 94.01 601.32" style="fill:#fff"/><g style="clip-path:url(#clip-path)"><path d="M393.88,660.41h-68.6c2.45,12.77,13.1,21,28.32,21,9.83,0,17.52-3.11,23.74-9.49l11,12.6c-7.85,9.34-20.13,14.25-35.2,14.25-29.31,0-48.3-18.83-48.3-44.86S324,609.16,350,609.16c25.54,0,44.21,17.85,44.21,45.19,0,1.64-.17,4.09-.33,6.06m-68.77-13.59h49.61c-1.63-12.61-11.29-21.29-24.72-21.29-13.26,0-22.92,8.52-24.89,21.29" transform="translate(-182.25 -96.26)" style="fill:#fff"/><rect x="223.43" y="479.83" width="20.47" height="121.49" style="fill:#fff"/><path d="M437.6,653.86c0-26.2,19.64-44.7,46.5-44.7,27.18,0,46.66,18.5,46.66,44.7s-19.48,44.86-46.66,44.86c-26.86,0-46.5-18.67-46.5-44.86m72.53,0c0-16.7-11.13-27.35-26-27.35-14.74,0-25.87,10.65-25.87,27.35s11.13,27.34,25.87,27.34c14.9,0,26-10.64,26-27.34" transform="translate(-182.25 -96.26)" style="fill:#fff"/><path d="M627.85,576.09V697.57H608.2V686.28c-6.87,8.35-17,12.44-29,12.44-25.37,0-44.2-17.68-44.2-44.86s18.83-44.7,44.2-44.7c11.3,0,21.29,3.76,28.16,11.79V576.09Zm-20.14,77.77c0-16.7-11.29-27.35-26-27.35s-26,10.65-26,27.35,11.29,27.34,26,27.34,26-10.64,26-27.34" transform="translate(-182.25 -96.26)" style="fill:#fff"/><path d="M763.75,646.33v51.24H744.43V686.93c-4.91,7.53-14.41,11.79-27.51,11.79-20,0-32.58-11-32.58-26.2,0-14.57,9.82-26,36.35-26h22.59v-1.31c0-11.95-7.2-19-21.77-19-9.83,0-20,3.27-26.53,8.67L687,620c9.33-7.2,22.92-10.8,37-10.8,25.22,0,39.79,12,39.79,37.17m-20.47,23.9V660.08H722.16c-13.92,0-17.68,5.24-17.68,11.62,0,7.37,6.22,12.12,16.7,12.12,10,0,18.66-4.59,22.1-13.59" transform="translate(-182.25 -96.26)" style="fill:#fff"/><path d="M814.67,611.45h22.59V631.1H815.32v66.47H789.78V631.1H776.19V611.45h13.59v-3.93c0-19.81,12.12-32.75,34.06-32.75,7.2,0,14.73,1.48,19.48,4.75L836.61,598a18,18,0,0,0-10.32-3.11c-7.53,0-11.62,4.1-11.62,12.77Z" transform="translate(-182.25 -96.26)" style="fill:#e87825"/><path d="M992.15,647.14v50.43H966.61v-46.5c0-14.24-6.39-20.79-16.7-20.79-11.46,0-19.48,7.37-19.48,23.09v44.2H904.88v-46.5c0-14.24-6-20.79-16.7-20.79-11.29,0-19.32,7.37-19.32,23.09v44.2H843.32V609.49h24.4v10.15c6.55-7.53,16.37-11.46,27.67-11.46,12.28,0,22.76,4.74,29,14.4,7-9,18.5-14.4,31.76-14.4,21,0,36,12.11,36,39" transform="translate(-182.25 -96.26)" style="fill:#e87825"/><path d="M659.84,576.09h25L667,598.83H648.56Zm-11.26,30.59h21.28v90.89H648.58Z" transform="translate(-182.25 -96.26)" style="fill:#fff"/></g><g style="clip-path:url(#clip-path)"><path d="M926.73,301C894,198.65,864,96.26,840.66,96.26c-26.54,0-54,74.33-80.07,159.65,4.77,14.84,9.63,30,14.62,45.13C799.51,374.82,841,505.82,841,505.82H992.15L926.73,301" transform="translate(-182.25 -96.26)" style="fill:#fff"/><path d="M840.66,96.26H681.72c-25.19,0-61,119-95.07,228.66-28.87,92.85-56.58,179-75.72,180.81-.2,0-.41.09-.61.09h159c23.84,0,56.24-134.94,91.31-249.91,26-85.32,53.53-159.65,80.07-159.65" transform="translate(-182.25 -96.26)" style="fill:#e87825"/><path d="M586.65,324.92C553.14,215.5,518,96.26,492.67,96.26H333.74c26.55,0,54.05,74.37,80.08,159.73,35.06,115,67.45,249.83,91.3,249.83l5.81-.09c19.14-1.82,46.84-88,75.72-180.81" transform="translate(-182.25 -96.26)" style="fill:#fff"/><path d="M333.74,96.26c-23.38,0-53.36,102.39-86.07,204.77L182.25,505.82H333.37s41.52-131,65.81-204.79c5-15.09,9.84-30.21,14.64-45-26-85.36-53.53-159.73-80.08-159.73" transform="translate(-182.25 -96.26)" style="fill:#bcbcbc"/></g></svg>