<svg version="1.2" xmlns="http://www.w3.org/2000/svg" viewBox="0 0 220 47" width="220" height="47">
	<title>EFM_HORIZONTAL 2-svg</title>
	<defs>
		<linearGradient id="g1" x1="7" y1="46.8" x2="210.9" y2="-7.8" gradientUnits="userSpaceOnUse">
			<stop offset="0" stop-color="#ff6600"/>
			<stop offset=".7" stop-color="#ff3d3d"/>
			<stop offset="1" stop-color="#ff2d55"/>
		</linearGradient>
	</defs>
	<style>
		.s0 { fill: url(#g1) } 
	</style>
	<g id="Capa_2">
		<g id="Capa_1-2">
			<path id="Layer" fill-rule="evenodd" class="s0" d="m70.3 1.8v7.6h-8.4v9.4h6.6v7.8h-6.6v10.6h8.8v7.8h-16.5v-43.2zm3.3 0h7.9v33.4q0 2.7 1.9 2.7c1.2 0 1.9-0.9 1.9-2.7v-33.4h7.9v33.1c0 7.2-3.4 10.7-8.9 10.7h-1.9c-5.7 0-8.9-3.5-8.9-10.7zm31 43.2h-7.7v-43.2h12.2c4.7 0 7 2.6 7 7.2v6.9c0 3.6-1.9 5.2-3.4 5.8 1.2 0.5 3.3 2 3.3 5.2v14.6c0 1.9 0.4 2.7 0.7 3.2v0.3h-7.8c-0.4-0.4-0.7-1.4-0.7-3.3v-12.6c0-2-0.4-2.5-2-2.5h-1.6zm0-25.6h1.5c1.5 0 2.1-0.6 2.1-2.7v-5.8c0-1.9-0.3-2.5-1.9-2.5h-1.7zm35 15.8c0 6.3-3.4 10.5-9.2 10.5h-1.8c-6.1 0-9.3-3.7-9.3-10.5v-22.8c0-6.7 2.6-11.1 9.3-11.1h1.7c6.8 0 9.3 4.4 9.3 11zm-8.1-23.4c0-2-0.7-2.9-2-2.9-1.6 0-2.1 1-2.1 2.9v23.6c0 1.4 0.5 2.6 2.1 2.6 1.6 0 2-1.2 2-2.6zm19.2 16v17.3h-7.7v-43.1h11c6.6 0 7.9 3.1 7.9 8.5v8.6c0 5.4-2.1 8.7-7.5 8.7zm0-7h1.4c1.9 0 2-1.1 2-2.4v-7.2c0-1.6-0.1-2.6-2-2.6h-1.4zm23.4 17.1h-4.6l-0.7 7.2h-6.9l5.5-43.1h9.2l5.8 43.1h-7.5zm-3.9-7.4h3.2l-1.7-14.8zm14.5-28.5h10.9v5h-5.8v6.2h4.3v5.1h-4.3v12.2h-5.1zm28.9 0v28.4h-4.6v-16.8l-2.5 16.8h-1.9l-2.6-16.8v16.8h-4.4v-28.4h6.3l1.9 14.4 2-14.4zm-207.3 36.1h39.6v6.8h-39.6zm0-8.9h17.9v6.8h-17.9zm0-9.2h28.3v6.8h-28.3zm0-8.9h17.9v6.8h-17.9zm0-9.1h39.6v6.9h-39.6z"/>
		</g>
	</g>
</svg>