<svg id="Capa_1" data-name="Capa 1" width="76" height="32" xmlns="http://www.w3.org/2000/svg" xmlns:xlink="http://www.w3.org/1999/xlink" viewBox="0 0 665.35 284.76"><polygon points="543.64 189.84 608 231.81 543.64 284.76 543.64 189.84" style="fill:#ba0000"/><polygon points="543.64 0 608 52.91 543.64 94.92 543.64 0" style="fill:#dd5b15"/><polygon points="543.64 94.92 608 142.36 543.64 189.84 543.64 94.92" style="fill:#dd5b15"/><polygon points="608 142.36 665.36 184.63 608 231.81 608 142.36" style="fill:#dd5b15"/><polygon points="608 52.91 665.36 100.05 608 142.36 608 52.91" style="fill:#ca2c07"/><polygon points="470.9 41.3 447.71 54.43 510.99 101.07 543.64 94.92 470.9 41.3" style="fill:#b22304"/><polygon points="510.99 101.07 447.71 142.39 470.9 142.41 543.64 94.92 510.99 101.07" style="fill:#ecba5a"/><polygon points="511.13 183.74 447.71 142.39 470.9 142.41 543.64 189.84 511.13 183.74" style="fill:#b22304"/><polygon points="511.13 183.74 447.71 230.58 470.9 243.51 543.64 189.84 511.13 183.74" style="fill:#e9ab3e"/><polygon points="543.64 0 470.9 41.3 543.64 94.92 543.64 0" style="fill:#e48f15"/><polygon points="608 52.91 543.64 94.92 608 142.36 608 52.91" style="fill:#e07615"/><polygon points="608 142.36 543.64 189.84 608 231.81 608 142.36" style="fill:#ca2c07"/><polygon points="543.64 94.92 470.9 142.41 543.64 189.84 543.64 94.92" style="fill:#e07615"/><polygon points="543.64 189.84 470.9 243.51 543.64 284.76 543.64 189.84" style="fill:#dd5b15"/><polygon points="54.95 129.48 41.63 129.48 41.63 121.64 77.89 121.64 77.89 129.48 64.58 129.48 64.58 163.25 54.95 163.25 54.95 129.48" style="fill:#fff"/><g style="clip-path:url(#clip-path)"><path d="M209.21,313.56l-8-11.6h-8.86v11.6H182.7V272h18c11.12,0,18.07,5.76,18.07,15.09a13.53,13.53,0,0,1-8.56,13.14l9.33,13.38Zm-9-33.77h-7.85V294.3h7.85c5.88,0,8.85-2.74,8.85-7.26s-3-7.25-8.85-7.25" transform="translate(-98.91 -150.31)" style="fill:#fff"/><polygon points="158.63 155.52 158.63 163.25 126.41 163.25 126.41 121.64 157.86 121.64 157.86 129.36 135.98 129.36 135.98 138.4 155.3 138.4 155.3 145.89 135.98 145.89 135.98 155.52 158.63 155.52" style="fill:#fff"/><path d="M262.23,309.45l3.27-7.25a24.41,24.41,0,0,0,13.73,4.34c5.7,0,8-1.9,8-4.46,0-7.78-24.19-2.43-24.19-17.89,0-7.07,5.71-13,17.54-13,5.23,0,10.58,1.25,14.44,3.69l-3,7.31A23.52,23.52,0,0,0,280.54,279c-5.71,0-7.91,2.14-7.91,4.75,0,7.67,24.19,2.38,24.19,17.66,0,6.95-5.76,12.9-17.65,12.9-6.6,0-13.26-2-16.94-4.82" transform="translate(-98.91 -150.31)" style="fill:#fff"/><polygon points="288.73 155.52 288.73 163.25 256.51 163.25 256.51 121.64 287.96 121.64 287.96 129.36 266.08 129.36 266.08 138.4 285.4 138.4 285.4 145.89 266.08 145.89 266.08 155.52 288.73 155.52" style="fill:#fff"/><path d="M395.53,271.94h16.66c13.61,0,22.94,8.21,22.94,20.81s-9.33,20.81-22.94,20.81H395.53Zm15.8,33.71c8.26,0,13.67-4.93,13.67-12.9s-5.41-12.9-13.67-12.9h-6.17v25.8Z" transform="translate(-98.91 -150.31)" style="fill:#fff"/><rect x="343.53" y="121.64" width="9.63" height="41.61" style="fill:#fff"/><path d="M489.76,304.64H471.27l-3.53,8.91H458.3l17.75-41.61h9.1L503,313.55h-9.67Zm-2.9-7.31-6.32-15.93-6.31,15.93Z" transform="translate(-98.91 -150.31)" style="fill:#fff"/><path d="M130.36,304.64H111.88l-3.53,8.91H98.91l17.75-41.61h9.1l17.8,41.61h-9.67Zm-2.9-7.31-6.31-15.93-6.31,15.93Z" transform="translate(-98.91 -150.31)" style="fill:#fff"/><polygon points="248.55 121.49 240.47 121.49 226.02 144.66 211.56 121.49 203.56 121.49 203.56 163.33 212.63 163.33 212.63 137.66 224.79 156.89 227.25 156.89 239.43 137.66 239.48 163.33 248.55 163.33 248.55 121.49" style="fill:#fff"/></g></svg>