<svg width="66" height="36" viewBox="0 0 66 36" fill="none" xmlns="http://www.w3.org/2000/svg">
<path d="M12.96 0C21.4016 0 25.1746 4.71641 25.1748 8.8877C25.1748 12.264 22.1458 14.996 18.7695 14.9961V15.9893C22.9388 16.6852 26.0174 20.3591 26.0176 24.5303C26.0176 30.3888 21.8465 35.9998 12.9092 36C6.10689 36 1.04288 32.5245 0 27.0625L0.00195312 27.0605L6.55664 24.2295C7.05421 26.2655 8.93935 28.7479 12.9121 28.748C16.8852 28.748 18.4238 26.5629 18.4238 24.626C18.4238 22.8873 17.1334 20.8536 13.4102 20.8535H10.3311V14.4473H13.1621C16.0409 14.4473 17.581 12.8079 17.5811 10.8232C17.5811 9.13598 16.0906 7.24806 12.7656 7.24805C9.4409 7.24805 7.35541 9.53212 7.10547 11.7168L0.451172 8.93555C1.19295 4.02256 5.76127 9.44733e-05 12.96 0ZM57.0684 28.6006H57.9619V0.646484H65.4092V35.4033H51.1602L41.7266 7.44824H40.832V35.4033H33.3838V0.646484H47.585L57.0684 28.6006Z" fill="white"/>
</svg>
