<!-- Generated by IcoMoon.io -->
<svg version="1.1" xmlns="http://www.w3.org/2000/svg" width="119" height="32" viewBox="0 0 119 32">
<title>logo-nova</title>
<path fill="#c44351" d="M13.731 0.998c-3.638 0-6.549 0.724-9.186 2.805-0.91-0.906-2.275-1.63-4.545-2.262v30.374h6.731v-18.258c0-4.068 2.547-6.419 6.549-6.419 3.729 0 5.367 2.441 5.367 6.147v18.438h6.731l0.091-0.18v-18.439c-0.004-7.234-3.824-12.205-11.737-12.205z"></path>
<path fill="#c44351" d="M45.021 31.82c7.099 0 12.83-4.427 12.83-11.841v-8.14c-0.003-6.864-5.278-11.837-12.921-11.837-7.095 0-12.825 4.431-12.825 11.843v8.045c0 7.143 5.185 11.931 12.916 11.931zM38.926 11.845c0-3.978 2.46-5.693 6.003-5.693 3.82 0 6.094 1.899 6.094 5.693v7.956c0 0.091 0 0.178 0 0.269-0.182 3.347-2.092 5.155-4.909 5.606-0.368 0-0.73 0.091-1.094 0.091-3.452 0-5.639-2.17-6.094-5.333 0-0.183 0-0.364 0-0.453v-8.137z"></path>
<path fill="#c44351" d="M82.769 1.36l-7.095 20.066-7.097-19.975v-0.091h-7.368l11.097 30.187c1.001 0.455 2.183 0.455 3.274 0.455 1.182 0 2.365 0 3.361-0.455v0l11.009-30.187-7.182 0.001z"></path>
<path fill="#c44351" d="M119.152 31.551v-19.526c0-1.717-0.364-3.345-0.91-4.791-0.637-1.446-1.546-2.712-2.641-3.796-1.184-1.084-2.549-1.899-4.090-2.441-1.643-0.542-3.366-0.902-5.276-0.902v0 0 0 0c-2.46 0-4.729 0.542-6.639 1.536-0.911 0.453-1.73 0.995-2.458 1.628-2.456 2.169-3.818 5.153-3.818 8.767v7.953c0 3.438 1.182 6.33 3.452 8.498 0.364 0.36 0.819 0.722 1.273 1.084 0.273 0.18 0.639 0.451 1.003 0.633 0.184 0.090 0.366 0.18 0.548 0.271 0.364 0.18 0.728 0.362 1.091 0.451 1.091 0.453 2.274 0.724 3.452 0.904 0.455 0.091 0.822 0.091 1.277 0.091v0c0.091 0 0.637 0 1.001 0 0.728 0 1.364-0.091 2.092-0.18 1.819-0.18 3.457-0.724 4.822-1.538 0.455-0.269 1.001-0.542 1.455-0.902v0c0.91 0.813 2.276 1.536 4.367 2.17v0.090zM111.148 23.417c-0.639 0.902-1.461 1.531-2.552 1.895 0 0-0.273 0.091-0.364 0.091-0.728 0.183-1.546 0.364-2.365 0.364-3.728 0-5.638-1.901-5.638-5.697v-7.952c0-4.613 3.179-5.606 5.911-5.606 3.725 0 5.913 1.899 6.004 5.333 0 0.178 0 0.273 0 0.273v8.048c0 0.090 0 0.090 0 0.178-0.086 1.171-0.359 2.166-0.996 3.071z"></path>
</svg>
