<!-- Generated by IcoMoon.io -->
<svg version="1.1" xmlns="http://www.w3.org/2000/svg" width="111" height="32" viewBox="0 0 111 32">
<title>logo-mega</title>
<path fill="#ab332a" d="M89.508 19.478l3.609-9.029 3.566 9.029h-7.175zM54.135 24.464h-15.061v-5.078h10.9v-6.992h-10.9v-4.846h15.167c-1.516 2.444-2.377 5.333-2.377 8.466v0.088c0 3.143 0.818 5.983 2.271 8.361zM97.46 0.006h-8.544l-5.71 13.413h-15.398v6.237h6.063v3.734c-1.278 0.834-2.856 1.276-4.915 1.276-4.876 0-8.351-3.556-8.351-8.525v-0.088c0-4.701 3.423-8.432 7.863-8.432 3.031 0 5.227 1.052 7.423 2.896l5.009-6.021c-3.246-2.812-7.069-4.495-12.471-4.495h-39.77l-9.606 12.787-9.476-12.787h-9.578v32h8.691v-16.519l10.402 14.129 10.309-14.129v16.519h26.033v-5.74c3.006 3.586 7.696 5.74 13.17 5.74h16.016l2.287-5.68h12.342l2.331 5.68h9.507l-13.628-31.994z"></path>
</svg>
