<!-- Generated by IcoMoon.io -->
<svg version="1.1" xmlns="http://www.w3.org/2000/svg" width="43" height="32" viewBox="0 0 43 32">
<title>logo-ondacero</title>
<path fill="#fff" d="M42.499 1.888c-0.014-0.978-0.128-1.446-0.662-1.694-0.477-0.221-1.633-0.146-2.337-0.179-0.99-0.044-1.921 0.022-2.395 0.045-6.184 0.293-12.229 0.21-18.647 0.179-1.527-0.011-3.108-0.122-4.672-0.046-1.54 0.073-3.058 0.289-4.409 0.45-1.226 0.146-2.867 0.234-4.543 0.313-0.923 0.044-2.386 0.278-3.264 0.36-0.354 0.032-0.976-0.022-1.102 0.132-0.198 0.24 0.069 0.173 0.132 0.448v-0.003c0.016-0.232 0.042 0.186 0 0.003v-0.001c-0.128 1.727-0.565 4.118-0.573 5.801-0.024 4.397 0.043 16.779 0.043 21.47 0 0.812-0.185 2.378 0.042 2.63 0.404 0.455 1.168 0.014 1.544-0.042 3.024-0.471 6.735-0.399 10.186-0.399 3.354 0 6.79-0.2 10.232-0.358 1.54-0.069 3.141-0.317 4.892-0.399 1.577-0.075 2.97-0.017 4.713-0.096 2.476-0.096 5.144 0.014 7.643 0.133 0.785 0.042 1.994 0.273 2.294-0.042 0.331-0.347 0.294-1.875 0.309-2.686 0.063-3.144 0.221-10.246 0.221-13.276 0-1.914-0.103-7.185 0.132-9.131 0.108-0.876 0.233-2.603 0.221-3.612z"></path>
<path fill="#1e1713" d="M8.52 11.903c0.995-0.328 1.26-2.245 0.55-3.054-0.829 0.458-1.023 2.076-0.55 3.054zM26.468 9.134c-0.233-0.344-0.895-0.361-1.403-0.541-0.058 0.769-0.177 1.743-0.163 2.412 0.7-0.283 2.156-0.994 1.567-1.87v0zM33.006 9.015c-0.208 0.387-0.527 0.669-0.695 1.090h1.322c-0.161-0.404-0.245-0.883-0.627-1.090z"></path>
<path fill="#1e1713" d="M10.17 12.495c-1.080 1.152-2.881 0.587-3.45-0.547-0.233-0.464-0.43-1.759-0.251-2.601 0.108-0.488 0.355-1.116 0.65-1.365 0.682-0.389 1.83-0.721 2.649-0.317 1.366 0.669 1.635 3.51 0.401 4.829zM29.877 11.734c0.466-1.435 1.91-3.113 2.85-4.33 0.077-0.046 0.163-0.077 0.253-0.093 0.818-0.099 1.217 1.312 1.5 1.914 0.382 0.815 0.588 1.704 0.799 2.552-0.563 0.73-1.341-0.061-1.499-0.639-0.923 0.116-1.292-0.179-2 0.046-0.737 0.239-1.056 1.664-1.902 0.549zM41.126 15.445c-0.422-0.085-0.842 0.015-1.281 0-1.336-0.050-2.725-0.159-4.25-0.267-1.041-0.073-2.103-0.202-3.047-0.179-0.855 0.018-2.754 0.226-3.118 0.161-0.038-0.007-0.075-0.014-0.116-0.017 1.805-0.295 3.603-0.772 5.288-1.257 1.253-0.362 2.673-0.84 3.461-1.666 0.491-0.515 1.091-1.837 0.939-2.887-0.262-1.802-2.266-2.86-3.491-3.529-2.892-1.576-5.984-2.131-9.783-2.375-1.782-0.113-3.628-0.383-5.413-0.383-1.502 0-3.13 0.375-4.544 0.641-2.975 0.555-5.55 1.404-8.181 2.63-1.313 0.617-2.628 1.187-3.548 2.052-0.617 0.58-1.431 1.66-1.386 2.951 0.041 1.187 0.898 2.080 1.514 2.693 0.229 0.229 0.393 0.523 0.563 0.642 0.402 0.284 0.995 0.51 1.473 0.645 1.491 0.411 3.782 0.812 5.025 0.927-0.487 0.122-1.003 0.309-1.549 0.339-2.718 0.149-5.6 0.271-8.682 0.315-0.231-3.917-0.012-11.213 0.571-14.542 2.705-0.536 5.216-0.412 8.022-0.758 7.81-0.975 16.637-0.069 25.688-0.494 1.997-0.097 4.118-0.102 6.060 0.091 0.275 3.492-0.412 10.435-0.217 14.268zM22.85 11.594c0.013-0.344 0.167-0.427 0.217-0.688 0.214-1.102-0.18-3.418 0.92-3.447 1.069-0.029 3.306 0.372 3.724 1.132 0.216 0.399 0.348 1.198 0.215 1.578-0.224 0.63-1.095 0.969-1.727 1.281-0.832 0.408-2.651 1.218-3.349 0.144zM18.71 7.225c0.672-0.194 1.055 0.758 1 1.413-0.022 0.258-0.156 0.592-0.2 0.914-0.129 0.958 0.020 1.565-0.4 2.233-0.49 0.041-0.702-0.179-0.999-0.317-0.084-0.075-0.512-0.438-0.588-0.536-0.075-0.097-1.124-0.883-1.962-1.381-0.304 0.717 0.056 2.19-0.7 2.324-0.331 0.062-0.828-0.296-0.899-0.543-0.041-0.145 0.042-0.492 0.050-0.641 0.057-0.969 0.101-3.088 0.849-3.188 0.592-0.082 1.079 0.73 1.598 1.048 0.67 0.412 1.249 0.473 1.8 0.912 0.431-0.475-0.177-2.056 0.451-2.237zM35.146 25.856c-2.878 1.033-6.149 1.171-9.167 1.653-5.912 0.937-11.492 1.088-17.436 0.29-1.067-0.146-2.109-0.434-3.098-0.859-0.703-0.301-2.71-1.173-2.786-2.123-0.096-1.215 1.156-2.796 1.674-3.427 1.7-2.052 4.231-2.827 7.277-3.708 0.767-0.22 2.162-0.5 2.873-0.574 0.645-0.067 1.292-0.1 1.939-0.099 3.759-0.001 6.57-0.941 10.494-0.868 0.033 0.001 0.065 0.008 0.096 0.001 2.559-0.157 5.214 0.703 7.5 1.501 1.67 0.585 3.471 1.019 4.926 2.332 0.473 0.427 1.029 1.21 0.985 1.777-0.151 1.931-3.699 3.537-5.275 4.103zM42.499 1.888c-0.014-0.978-0.128-1.446-0.662-1.694-0.477-0.221-1.633-0.146-2.337-0.179-0.99-0.044-1.921 0.022-2.395 0.045-6.184 0.293-12.229 0.21-18.647 0.179-1.527-0.011-3.108-0.122-4.672-0.046-1.54 0.073-3.058 0.289-4.409 0.45-1.226 0.146-2.867 0.234-4.543 0.313-0.923 0.044-2.386 0.278-3.264 0.36-0.354 0.032-0.976-0.022-1.102 0.132-0.198 0.24 0.069 0.173 0.132 0.448v-0.003c0.016-0.232 0.042 0.186 0 0.003v-0.001c-0.128 1.727-0.565 4.118-0.573 5.801-0.024 4.397 0.043 16.779 0.043 21.47 0 0.812-0.185 2.378 0.042 2.63 0.404 0.455 1.168 0.014 1.544-0.042 3.024-0.471 6.735-0.399 10.186-0.399 3.354 0 6.79-0.2 10.232-0.358 1.54-0.069 3.141-0.317 4.892-0.399 1.577-0.075 2.97-0.017 4.713-0.096 2.476-0.096 5.144 0.014 7.643 0.133 0.785 0.042 1.994 0.273 2.294-0.042 0.331-0.347 0.294-1.875 0.309-2.686 0.063-3.144 0.221-10.246 0.221-13.276 0-1.914-0.103-7.185 0.132-9.131 0.108-0.876 0.233-2.603 0.221-3.612z"></path>
<path fill="#1e1713" d="M25.407 21.475c-0.001-0.453 0.077-0.898 0.233-1.323 0.662 0.036 0.861 0.218 0.927 0.581-0.263 0.336-0.647 0.584-1.159 0.742zM28.373 19.876l-0.002-0.106-0.055-0.092c-0.73-1.2-3.139-0.951-4.203-0.554l-0.24 0.091-0.014 0.258c-0.042 0.797-0.151 1.556-0.261 2.285-0.145 0.98-0.294 1.997-0.284 3.154l0.003 0.401 0.401-0.015c0.079-0.003 0.154-0.001 0.234 0.002 0.185 0.013 0.375 0.014 0.578-0.054l0.133-0.042 0.073-0.118c0.142-0.218 0.188-0.536 0.243-0.895 0.036-0.228 0.106-0.691 0.206-0.803 0.099 0.031 0.327 0.179 0.51 0.346 0.258 0.234 0.51 0.62 0.772 1.163l0.1 0.207 0.233 0.014c0.317 0.014 0.598-0.014 0.836-0.039l0.384-0.042-0.040-0.384c-0.079-0.812-0.482-1.333-0.836-1.791-0.107-0.137-0.21-0.28-0.308-0.424 0.1-0.096 0.21-0.205 0.323-0.298 0.582-0.502 1.236-1.082 1.214-2.263zM15.989 19.251l-0.303 0.048-0.023 0.306c-0.042 0.551-0.097 1.122-0.151 1.676-0.124 1.295-0.257 2.63-0.236 3.952l0.007 0.422 0.419-0.040c0.565-0.048 1.198-0.061 1.805-0.069 0.465-0.007 0.946-0.014 1.401-0.040l0.29-0.015 0.069-0.283c0.082-0.344 0.165-0.687 0.167-1.116l0.003-0.344-0.339-0.042c-0.372-0.052-0.705-0.014-1.003 0.027-0.162 0.014-0.315 0.040-0.454 0.042-0.059-0.005-0.119-0.014-0.177-0.031-0.099-0.020-0.214-0.045-0.34-0.042-0.122 0.010-0.329 0.161-0.341-0.059-0.011-0.169 0.018-0.344 0.045-0.51 0.014-0.075 0.026-0.151 0.042-0.23 0.009-0.042 0.014-0.090 0.023-0.124 0.26-0.042 0.482 0.007 0.766 0.061 0.344 0.069 0.735 0.144 1.27 0.075l0.196-0.021 0.096-0.174c0.087-0.152 0.088-0.348 0.089-0.579 0-0.069 0.001-0.179 0.009-0.234 0.005-0.042 0.040-0.096 0.055-0.138 0.055-0.155-0.1-0.29-0.221-0.356-0.393-0.221-0.895-0.179-1.381-0.133-0.234 0.019-0.668 0.057-0.765-0.014-0.032-0.126-0.021-0.228-0.006-0.374 0.011-0.096 0.020-0.213 0.020-0.351 0.076-0.025 0.202-0.024 0.428-0.013 0.096 0.007 0.193 0.014 0.298 0.014 0.223 0.001 0.445-0.014 0.666-0.042 0.305-0.032 0.592-0.061 0.847-0.003l0.445 0.099 0.030-0.455c0.014-0.219 0.062-0.498 0.096-0.721l0.014-0.082 0.079-0.47-0.478 0.014c-1.086 0.048-2.187 0.163-3.457 0.369zM11.986 24.249l-0.041-0.372-0.372 0.026c-0.473 0.038-0.938-0.112-1.246-0.399-0.256-0.234-0.387-0.537-0.393-0.913-0.008-0.525 0.399-1.088 0.806-1.376 0.040-0.024 0.084-0.042 0.13-0.058 0.151-0.058 0.399-0.151 0.511-0.436 0.12-0.301 0.077-0.619 0.044-0.868-0.015-0.083-0.021-0.166-0.021-0.25 0.015-0.124 0.13-0.319 0.003-0.422-0.077-0.062-0.184-0.044-0.278-0.036-0.098 0.014-0.208 0.007-0.305 0.044-0.783 0.336-2.245 1.273-2.755 2.658-0.262 0.711-0.222 1.419 0.114 2.084 0.514 1.024 1.322 2.035 3.428 1.772l0.209-0.026 0.094-0.191c0.178-0.37 0.124-0.836 0.079-1.203l-0.007-0.034zM33.561 22.32c-0.060 0.151-0.207 0.399-0.507 0.427-0.173 0.014-0.527-0.13-0.592-0.231v0.011c-0.001-0.011-0.003-0.014-0.003-0.014l0.003 0.003c-0.045-0.096-0.022-0.278 0.062-0.475 0.149-0.344 0.404-0.592 0.497-0.627v0c0.344-0.075 0.455 0.053 0.488 0.096 0.149 0.175 0.17 0.522 0.052 0.81zM35.378 20.422l-0.009-0.024c-0.092-0.307-0.298-0.47-0.482-0.615-0.243-0.198-0.523-0.344-0.825-0.428-0.124-0.036-0.253-0.042-0.379-0.020-0.108 0.015-0.207 0.071-0.318 0.076-0.11 0.003-0.207-0.004-0.315 0.034-0.427 0.137-1.139 0.604-1.433 0.941-0.781 0.895-1.339 2.989-0.518 4.045 0.269 0.344 0.647 0.548 1.088 0.587 0.73 0.065 1.44-0.323 1.823-0.675 0.812-0.741 1.661-2.204 1.372-3.89l-0.005-0.029z"></path>
</svg>
