<?xml version="1.0" encoding="UTF-8" standalone="no"?>
<!-- Generated by IcoMoon.io -->

<svg
   xmlns:dc="http://purl.org/dc/elements/1.1/"
   xmlns:cc="http://creativecommons.org/ns#"
   xmlns:rdf="http://www.w3.org/1999/02/22-rdf-syntax-ns#"
   xmlns:svg="http://www.w3.org/2000/svg"
   xmlns="http://www.w3.org/2000/svg"
   xmlns:sodipodi="http://sodipodi.sourceforge.net/DTD/sodipodi-0.dtd"
   xmlns:inkscape="http://www.inkscape.org/namespaces/inkscape"
   version="1.1"
   width="33"
   height="32"
   viewBox="0 0 33 32"
   id="svg36"
   sodipodi:docname="logo-atreseries.svg"
   inkscape:version="0.92.4 (5da689c313, 2019-01-14)">
  <metadata
     id="metadata42">
    <rdf:RDF>
      <cc:Work
         rdf:about="">
        <dc:format>image/svg+xml</dc:format>
        <dc:type
           rdf:resource="http://purl.org/dc/dcmitype/StillImage" />
        <dc:title>logo-atreseries</dc:title>
      </cc:Work>
    </rdf:RDF>
  </metadata>
  <defs
     id="defs40" />
  <sodipodi:namedview
     pagecolor="#ffffff"
     bordercolor="#666666"
     borderopacity="1"
     objecttolerance="10"
     gridtolerance="10"
     guidetolerance="10"
     inkscape:pageopacity="0"
     inkscape:pageshadow="2"
     inkscape:window-width="1920"
     inkscape:window-height="1001"
     id="namedview38"
     showgrid="false"
     inkscape:zoom="7.375"
     inkscape:cx="16.5"
     inkscape:cy="16"
     inkscape:window-x="-9"
     inkscape:window-y="-9"
     inkscape:window-maximized="1"
     inkscape:current-layer="svg36" />
  <title
     id="title2">logo-atreseries</title>
  <g
     id="surface1"
     transform="matrix(1.1051515,-0.00340176,0.00331819,1.1329857,-2.3417472,1.3680618)">
    <path
       id="path81"
       d="M 9.648438,7.550781 8.820312,3.394531 H 6.15625 L 2.964844,19.632812 h 2.089844 l 0.6875,-3.828124 H 9.1875 l 0.292969,1.6875 1.367187,-1.378907 0.425782,-0.429687 z M 8.726562,13.972656 H 6.066406 l 0.40625,-2.277344 0.203125,-1.140624 0.789063,-4.421876 0.542968,3.078126 0.835938,4.761718 z m 0,0"
       style="fill:#e8e3d1;fill-opacity:1;fill-rule:nonzero;stroke:none"
       inkscape:connector-curvature="0" />
    <path
       id="path83"
       d="m 15.304688,3.210938 h -0.160157 c -0.492187,0 -0.9375,0.046874 -1.339843,0.140624 -1.152344,0.28125 -1.914063,0.980469 -2.183594,2.207032 -0.07031,0.324218 -0.105469,0.683594 -0.105469,1.082031 v 1.742187 h 2.042969 V 6.921875 c 0,-1.417969 0.644531,-1.878906 1.539062,-1.878906 h 0.207032 c 0.894531,0 1.539062,0.460937 1.539062,1.878906 v 1.738281 c 0,1.230469 -0.574219,1.671875 -1.679688,1.671875 h -1.605468 v 1.808594 h 1.835937 c 0.894531,0 1.449219,0.441406 1.449219,1.4375 v 2.527344 c 0,0.65625 -0.140625,1.105469 -0.378906,1.402343 -0.273438,0.34375 -0.679688,0.476563 -1.160156,0.476563 h -0.160157 c -0.898437,0 -1.539062,-0.460937 -1.539062,-1.878906 v -1.117188 l -1.9375,1.957031 -0.113281,0.113282 c 0.0078,0.06641 0.01953,0.132812 0.03125,0.195312 l 0.05469,0.277344 c 0.320313,1.363281 1.269531,2.15625 2.859375,2.269531 0.132812,0.01172 0.269531,0.01563 0.414062,0.01563 h 0.617188 c 1.066406,0 1.882812,-0.269531 2.445312,-0.78125 0.636719,-0.582031 0.957032,-1.480468 0.957032,-2.648437 V 13.53125 c 0,-0.878906 -0.164063,-2.0625 -1.632813,-2.34375 1.402344,-0.207031 1.632813,-1.527344 1.632813,-2.550781 V 6.644531 c 0,-2.4375 -1.355469,-3.433593 -3.628906,-3.433593"
       style="fill:#f54a1c;fill-opacity:1;fill-rule:nonzero;stroke:none"
       inkscape:connector-curvature="0" />
    <path
       id="path85"
       d="M 25.84375,11.050781 23.753906,9.890625 C 22.835938,9.355469 22.488281,9.007812 22.488281,8.035156 V 6.921875 c 0,-1.179687 0.515625,-1.707031 1.433594,-1.796875 0.09375,-0.00781 0.1875,-0.011719 0.289063,-0.011719 1.105468,0 1.722656,0.507813 1.722656,1.808594 V 9.125 h 2.113281 V 6.550781 c 0,-2.34375 -1.605469,-3.339843 -3.8125,-3.339843 h -0.04297 c -0.691406,0 -1.324218,0.097656 -1.867187,0.300781 -1.1875,0.453125 -1.945313,1.429687 -1.945313,3.039062 v 2.039063 c 0,1.554687 0.78125,2.25 2.25,3.109375 l 2.066406,1.160156 c 0.5625,0.320313 0.910157,0.597656 1.101563,0.976563 L 27.39453,12.222656 C 27.007812,11.78125 26.480469,11.414062 25.84375,11.050781"
       style="fill:#e8e3d1;fill-opacity:1;fill-rule:nonzero;stroke:none"
       inkscape:connector-curvature="0" />
    <path
       id="path87"
       d="m 22.488281,16.058594 v -2.386719 h -2.109375 v 2.757813 c 0,0.976562 0.21875,1.707031 0.632813,2.238281 l 1.640625,-1.65625 C 22.546875,16.753906 22.488281,16.4375 22.488281,16.058594"
       style="fill:#e8e3d1;fill-opacity:1;fill-rule:nonzero;stroke:none"
       inkscape:connector-curvature="0" />
    <path
       id="path89"
       d="m 19.222656,22.53125 12.003906,-12.128906 0.289063,0.292968 -12.003906,12.128907 z m 0,0"
       style="fill:#f54a1c;fill-opacity:1;fill-rule:nonzero;stroke:none"
       inkscape:connector-curvature="0" />
  </g>
</svg>
