<svg width="25" height="20" fill="none" version="1.1" viewBox="0 0 27 24" xmlns="http://www.w3.org/2000/svg">
    <path d="m0.68888 21.292-0.011758 0.0106c-0.38844 0.3201-0.4654 0.8089-0.18657 1.1969 0.28166 0.3919 0.85621 0.5833 1.4011 0.4667l7.224-1.5454c1.3473 0.3755 2.7937 0.5792 4.2967 0.5792 7.2286 0 13.088-4.701 13.088-10.5 0-5.799-5.8599-10.5-13.088-10.5-7.2285 0-13.088 4.701-13.088 10.5 0 2.1029 0.77183 4.0638 2.1006 5.7072-0.038233 0.3179-0.10335 0.6824-0.20662 1.0967-0.28609 1.1476-0.70842 1.925-1.0359 2.398-0.16422 0.2371-0.30596 0.3996-0.39719 0.4953-0.04566 0.0479-0.078781 0.0792-0.095895 0.0948z" fill="#fff" stroke-width="1.1165"></path>
</svg>